# xmcd
#
# Track frame offsets:
#	150
#	25233
#	44664
#	70562
#	92566
#	111795
#	135870
#	160445
#	192128
#	210154
#	234041
#	254490
#	276302
#	305955
#
# Disc length: 4412 seconds
#
# Revision: 0
# Processed by: cddbd v1.5.2PL0 Copyright (c) Steve Scherf et al.
# Submitted via: EasyCDDAExtractor 15.3.0.1
#
DISCID=bb113a0e
DTITLE=Dien An - Dien An - Cam on tinh yeu 
DYEAR=2011
DGENRE=
TTITLE0=Cam on tinh yeu
TTITLE1=Thu tim
TTITLE2=Dan toi
TTITLE3=Mua doi
TTITLE4=Khuc tu tinh cho anh
TTITLE5=Nho
TTITLE6=Nua doi
TTITLE7=Hay noi yeu toi
TTITLE8=Ngay thu khong nang
TTITLE9=Tim quen
TTITLE10=Noi dau am tham
TTITLE11=Tim nhau trong hu vo
TTITLE12=Cam on tinh yeu ( bonus )
TTITLE13=Nho ( bonus )
EXTD=
EXTT0=
EXTT1=
EXTT2=
EXTT3=
EXTT4=
EXTT5=
EXTT6=
EXTT7=
EXTT8=
EXTT9=
EXTT10=
EXTT11=
EXTT12=
EXTT13=
PLAYORDER=
